<svg width="16" height="18" viewBox="0 0 16 18" fill="none" xmlns="http://www.w3.org/2000/svg">
<path d="M1.70032 14.1584H14.2997C14.676 14.1584 14.9701 14.0714 15.1821 13.8972C15.394 13.723 15.5 13.4907 15.5 13.2004C15.5 12.9365 15.4232 12.6805 15.2695 12.4324C15.1158 12.1843 14.9237 11.9415 14.6932 11.704C14.4626 11.4664 14.2335 11.2289 14.0056 10.9914C13.8307 10.8119 13.6942 10.577 13.5962 10.2867C13.4982 9.99638 13.4253 9.68761 13.3776 9.36039C13.3299 9.03311 13.2955 8.71639 13.2743 8.41023C13.2584 7.39677 13.1484 6.49416 12.9444 5.70239C12.7404 4.91062 12.4237 4.24553 11.9945 3.70713C11.5652 3.16873 10.9982 2.77285 10.2933 2.51949C10.1449 2.00219 9.87203 1.56408 9.47459 1.20515C9.07714 0.846215 8.58429 0.666748 7.99604 0.666748C7.4131 0.666748 6.92291 0.846215 6.52545 1.20515C6.12799 1.56408 5.85507 2.00219 5.70668 2.51949C5.00186 2.77285 4.4335 3.16873 4.0016 3.70713C3.56969 4.24553 3.25305 4.91062 3.05168 5.70239C2.8503 6.49416 2.74166 7.39677 2.72576 8.41023C2.70456 8.71639 2.67011 9.03311 2.62242 9.36039C2.57472 9.68761 2.50186 9.99638 2.40382 10.2867C2.30578 10.577 2.16932 10.8119 1.99444 10.9914C1.76657 11.2289 1.53737 11.4664 1.30684 11.704C1.07631 11.9415 0.884208 12.1843 0.730525 12.4324C0.576842 12.6805 0.5 12.9365 0.5 13.2004C0.5 13.4907 0.605989 13.723 0.817966 13.8972C1.02994 14.0714 1.32406 14.1584 1.70032 14.1584ZM7.99604 17.3334C8.44651 17.3334 8.84928 17.2358 9.20434 17.0405C9.55941 16.8452 9.84425 16.5892 10.0589 16.2724C10.2735 15.9558 10.3993 15.6127 10.4364 15.2432H5.5636C5.5954 15.6127 5.71994 15.9558 5.93721 16.2724C6.15449 16.5892 6.44066 16.8452 6.79572 17.0405C7.15078 17.2358 7.55088 17.3334 7.99604 17.3334Z" fill="#999999"/>
</svg>
