<svg width="22" height="22" viewBox="0 0 22 22" fill="none" xmlns="http://www.w3.org/2000/svg">
<path d="M21.9996 6.53374V6.61063C21.9996 7.52323 21.9996 7.97952 21.7717 8.35285C21.5438 8.72617 21.13 8.94775 20.3023 9.39094L19.4297 9.85829C20.031 7.8988 20.2316 5.79347 20.3058 3.99301C20.3089 3.91581 20.3126 3.83766 20.3162 3.75869L20.3187 3.70337C21.0351 3.94316 21.4373 4.12194 21.6882 4.45751C21.9997 4.87401 21.9997 5.42726 21.9996 6.53374Z" fill="#FFB11F"/>
<path d="M6.72475e-07 6.53363V6.61053C3.36726e-05 7.52312 4.47648e-05 7.97942 0.227955 8.35275C0.455865 8.72606 0.869698 8.94765 1.69736 9.39083L2.5705 9.8584C1.96909 7.89887 1.76845 5.79345 1.69428 3.9929C1.6911 3.9157 1.68752 3.83755 1.6839 3.75859L1.68136 3.70312C0.964716 3.94299 0.562389 4.12177 0.311412 4.4574C-4.34371e-05 4.87391 -3.23277e-05 5.42715 6.72475e-07 6.53363Z" fill="#FFB11F"/>
<path fill-rule="evenodd" clip-rule="evenodd" d="M15.8153 0.367628C14.5789 0.166553 12.9626 0 11.0007 0C9.03873 0 7.42242 0.166553 6.18595 0.367628C4.93334 0.571332 4.30703 0.673189 3.78375 1.29437C3.26045 1.91557 3.28811 2.58697 3.34341 3.92975C3.5333 8.5396 4.5654 14.2975 10.1755 14.807V18.5542H8.60224C8.07789 18.5542 7.62644 18.911 7.5236 19.4065L7.31546 20.4096H4.40044C3.94481 20.4096 3.57544 20.7657 3.57544 21.2048C3.57544 21.644 3.94481 22 4.40044 22H17.6005C18.0561 22 18.4255 21.644 18.4255 21.2048C18.4255 20.7657 18.0561 20.4096 17.6005 20.4096H14.6855L14.4774 19.4065C14.3745 18.911 13.9231 18.5542 13.3987 18.5542H11.8255V14.807C17.4358 14.2977 18.468 8.53971 18.6578 3.92975C18.7132 2.58697 18.7409 1.91557 18.2175 1.29437C17.6942 0.673189 17.068 0.571332 15.8153 0.367628Z" fill="#FFB11F"/>
</svg>
