<svg width="22" height="22" viewBox="0 0 22 22" fill="none" xmlns="http://www.w3.org/2000/svg">
<path d="M21.9879 4.38096C21.9599 4.20396 21.6759 2.61396 20.5239 1.45296C19.3669 0.320958 17.7709 0.0409575 17.5929 0.0129575C17.3559 -0.0260425 17.1139 0.0239576 16.9109 0.149958C16.7929 0.222958 13.9569 1.99896 8.19887 7.71596C2.13587 13.737 0.545875 16.143 0.480875 16.242C0.389875 16.382 0.334875 16.543 0.321875 16.709L0.00287472 20.78C-0.0191253 21.072 0.0858748 21.358 0.292875 21.565C0.480875 21.753 0.735875 21.858 1.00087 21.858C1.02587 21.858 1.05187 21.858 1.07787 21.855L5.17887 21.539C5.34387 21.526 5.50287 21.473 5.64187 21.384C5.74187 21.32 8.16488 19.741 14.2269 13.722C19.9859 8.00396 21.7749 5.18696 21.8489 5.06996C21.9769 4.86496 22.0269 4.61996 21.9889 4.38096H21.9879ZM12.8179 12.303C7.88788 17.198 5.42387 19.083 4.75387 19.566L2.08887 19.772L2.29487 17.14C2.78687 16.468 4.68787 14.021 9.60687 9.13596C11.1299 7.62396 12.4429 6.39496 13.5489 5.40696C13.5589 5.40896 13.5689 5.41096 13.5799 5.41296C13.5919 5.41496 14.8169 5.62696 15.6009 6.39296C16.3729 7.14796 16.5899 8.32296 16.5959 8.35196C16.5959 8.35596 16.5979 8.35896 16.5979 8.36296C15.5989 9.46596 14.3529 10.779 12.8179 12.303ZM18.1269 6.61896C17.8879 6.08496 17.5299 5.48096 16.9999 4.96296C16.4759 4.44996 15.8659 4.10196 15.3259 3.86996C16.4649 2.91996 17.2339 2.35396 17.6349 2.07296C18.0539 2.19696 18.6839 2.44996 19.1159 2.87296C19.5689 3.32896 19.8109 3.95396 19.9259 4.34196C19.6409 4.74196 19.0749 5.50096 18.1279 6.61996L18.1269 6.61896Z" fill="white"/>
</svg>
