<svg width="20" height="10" viewBox="0 0 20 10" fill="none" xmlns="http://www.w3.org/2000/svg">
<path d="M6.66844 10H13.3316C13.7524 10 14.0469 9.93788 14.2149 9.81365C14.3829 9.68946 14.4669 9.50499 14.4669 9.26025C14.4669 8.9043 14.3634 8.52796 14.1565 8.13123C13.9496 7.73451 13.6525 7.3628 13.2652 7.01611C12.878 6.66943 12.4094 6.38763 11.8594 6.17072C11.3095 5.9538 10.6897 5.84535 10 5.84535C9.31389 5.84535 8.69585 5.9538 8.14588 6.17072C7.59595 6.38763 7.12644 6.66943 6.73738 7.01611C6.34835 7.3628 6.05127 7.73451 5.84614 8.13123C5.64102 8.52796 5.53846 8.9043 5.53846 9.26025C5.53846 9.50499 5.62246 9.68946 5.79046 9.81365C5.95843 9.93788 6.25109 10 6.66844 10ZM10.0053 4.84982C10.3837 4.84982 10.7339 4.74137 11.0557 4.52446C11.3775 4.30755 11.6366 4.01371 11.8329 3.64293C12.0292 3.27215 12.1273 2.85502 12.1273 2.39154C12.1273 1.93548 12.0292 1.52669 11.8329 1.16518C11.6366 0.80367 11.3775 0.519096 11.0557 0.311456C10.7339 0.103819 10.3837 0 10.0053 0C9.62687 0 9.27674 0.105673 8.95492 0.317018C8.63307 0.528365 8.374 0.815721 8.17771 1.17909C7.98143 1.54245 7.88328 1.95031 7.88328 2.40267C7.88328 2.86243 7.98143 3.27678 8.17771 3.64571C8.374 4.01464 8.63307 4.30755 8.95492 4.52446C9.27674 4.74137 9.62687 4.84982 10.0053 4.84982ZM0.933687 10H4.96021C4.82228 9.78863 4.75685 9.53465 4.76393 9.23804C4.771 8.94139 4.83643 8.62992 4.96021 8.30363C5.084 7.97737 5.25464 7.66128 5.47213 7.35538C5.68964 7.04947 5.94163 6.77972 6.22809 6.54614C5.93102 6.3385 5.59062 6.16701 5.2069 6.0317C4.82317 5.89634 4.38373 5.82866 3.88859 5.82866C3.29089 5.82866 2.75243 5.93156 2.27321 6.13734C1.79399 6.34313 1.3855 6.6138 1.04775 6.94936C0.709991 7.28493 0.450929 7.65107 0.270557 8.0478C0.0901857 8.44453 0 8.83571 0 9.22135C0 9.46978 0.0716181 9.66165 0.214854 9.79697C0.35809 9.93232 0.597701 10 0.933687 10ZM3.88859 4.97774C4.22104 4.97774 4.52697 4.88319 4.80637 4.69409C5.08577 4.505 5.31035 4.24823 5.48011 3.92379C5.64986 3.59936 5.73473 3.23692 5.73473 2.83648C5.73473 2.43603 5.64986 2.07916 5.48011 1.76585C5.31035 1.45254 5.08488 1.20597 4.80371 1.02614C4.52255 0.846308 4.21751 0.756394 3.88859 0.756394C3.56322 0.756394 3.25995 0.848162 2.97878 1.0317C2.69761 1.21524 2.47038 1.46459 2.29709 1.77975C2.12379 2.09491 2.0389 2.45086 2.04244 2.8476C2.04244 3.24434 2.12732 3.604 2.29709 3.92658C2.46685 4.24916 2.69231 4.505 2.97347 4.69409C3.25464 4.88319 3.55968 4.97774 3.88859 4.97774ZM19.0663 10C19.4023 10 19.6419 9.93232 19.7852 9.79697C19.9284 9.66165 20 9.46978 20 9.22135C20 8.83571 19.9107 8.44453 19.7321 8.0478C19.5535 7.65107 19.2944 7.28493 18.9549 6.94936C18.6154 6.6138 18.206 6.34313 17.7268 6.13734C17.2476 5.93156 16.7091 5.82866 16.1114 5.82866C15.6163 5.82866 15.1768 5.89634 14.7931 6.0317C14.4094 6.16701 14.069 6.3385 13.7719 6.54614C14.0584 6.77972 14.3104 7.04947 14.5279 7.35538C14.7454 7.66128 14.916 7.97737 15.0398 8.30363C15.1636 8.62992 15.229 8.94139 15.2361 9.23804C15.2432 9.53465 15.1777 9.78863 15.0398 10H19.0663ZM16.1114 4.97774C16.4403 4.97774 16.7454 4.88319 17.0265 4.69409C17.3077 4.505 17.5331 4.24916 17.7029 3.92658C17.8727 3.604 17.9575 3.24434 17.9575 2.8476C17.9575 2.45086 17.8718 2.09491 17.7003 1.77975C17.5287 1.46459 17.3024 1.21524 17.0212 1.0317C16.74 0.848162 16.4368 0.756394 16.1114 0.756394C15.7825 0.756394 15.4775 0.846308 15.1963 1.02614C14.9151 1.20597 14.6897 1.45254 14.5199 1.76585C14.3501 2.07916 14.2653 2.43603 14.2653 2.83648C14.2653 3.23692 14.3501 3.59936 14.5199 3.92379C14.6897 4.24823 14.9143 4.505 15.1937 4.69409C15.473 4.88319 15.7789 4.97774 16.1114 4.97774Z" fill="#999999"/>
</svg>
