<svg width="10" height="10" viewBox="0 0 10 10" fill="none" xmlns="http://www.w3.org/2000/svg">
<path d="M1.16996 8.78816C1.16996 9.18574 1.27928 9.48711 1.49792 9.69226C1.71655 9.89742 2.02108 10 2.4115 10H4.61348V5.71563H1.16996V8.78816ZM5.38183 10H7.58849C7.97891 10 8.28344 9.89742 8.50207 9.69226C8.72071 9.48711 8.83003 9.18574 8.83003 8.78816V5.71563H5.38183V10ZM0.5 4.49426C0.5 4.74872 0.567933 4.93081 0.7038 5.04055C0.839666 5.15028 1.03409 5.20514 1.28709 5.20514H4.61348V2.62404H3.88261C3.51405 2.62404 3.22748 2.52385 3.0229 2.32347C2.81832 2.12308 2.71603 1.8909 2.71603 1.62691C2.71603 1.36291 2.80036 1.15855 2.96902 1.01384C3.13768 0.869115 3.35007 0.796754 3.60619 0.796754C3.88729 0.796754 4.12545 0.89774 4.32066 1.09971C4.51587 1.30168 4.61348 1.57919 4.61348 1.93225V2.62404H5.38183V1.93225C5.38183 1.57919 5.48021 1.30168 5.67697 1.09971C5.87374 0.89774 6.11112 0.796754 6.38911 0.796754C6.64834 0.796754 6.86151 0.869115 7.02862 1.01384C7.19573 1.15855 7.27929 1.36291 7.27929 1.62691C7.27929 1.8909 7.17699 2.12308 6.97239 2.32347C6.76783 2.52385 6.48126 2.62404 6.11268 2.62404H5.38183V5.20514H8.71288C8.9659 5.20514 9.16034 5.15028 9.2962 5.04055C9.43207 4.93081 9.5 4.74872 9.5 4.49426V3.33491C9.5 3.08046 9.43207 2.89837 9.2962 2.78864C9.16034 2.6789 8.9659 2.62404 8.71288 2.62404H7.62596C7.76339 2.49363 7.87037 2.34016 7.94691 2.16364C8.02341 1.98711 8.06166 1.79389 8.06166 1.58397C8.06166 1.27544 7.98905 1.00191 7.84381 0.763357C7.69857 0.524808 7.50336 0.337944 7.25818 0.202767C7.013 0.0675889 6.73892 0 6.43594 0C6.10801 0 5.81599 0.0874679 5.55987 0.262404C5.30374 0.43734 5.11634 0.685432 4.99765 1.00668C4.87896 0.685432 4.69234 0.43734 4.43779 0.262404C4.18323 0.0874679 3.89042 0 3.55934 0C3.25637 0 2.9823 0.0675889 2.73711 0.202767C2.49193 0.337944 2.29672 0.524808 2.15148 0.763357C2.00624 1.00191 1.93363 1.27544 1.93363 1.58397C1.93363 1.79389 1.97267 1.98711 2.05075 2.16364C2.12884 2.34016 2.23659 2.49363 2.37402 2.62404H1.28709C1.04659 2.62404 0.855283 2.6789 0.71317 2.78864C0.571057 2.89837 0.5 3.08046 0.5 3.33491V4.49426Z" fill="#999999"/>
</svg>
