<svg width="21" height="19" viewBox="0 0 21 19" fill="none" xmlns="http://www.w3.org/2000/svg">
<path fill-rule="evenodd" clip-rule="evenodd" d="M2.46209 3.59322C1.81085 4.70963 1.59652 6.25875 1.99665 7.8593C2.14064 8.43518 2.55924 9.17566 3.22266 10.028C3.87321 10.8636 4.70355 11.7373 5.583 12.5755C7.3268 14.2376 9.20347 15.7038 10.1004 16.3818C10.9973 15.7038 12.8739 14.2376 14.6177 12.5755C15.4972 11.7373 16.3275 10.8636 16.9781 10.028C17.6415 9.17566 18.0601 8.43518 18.2041 7.8593C18.6042 6.25875 18.3899 4.70964 17.7386 3.59322C17.103 2.50353 16.0416 1.79487 14.5875 1.79487C13.3225 1.79487 12.4309 2.73025 11.8005 3.99109C11.4976 4.59692 11.2917 5.21181 11.1614 5.6809C11.0967 5.91373 11.0518 6.10647 11.0235 6.23872C10.923 6.70737 10.3824 6.73077 10.1004 6.73077C9.81831 6.73077 9.27679 6.70299 9.17727 6.23872C9.14891 6.10648 9.10404 5.91373 9.03933 5.6809C8.90903 5.21181 8.70315 4.59693 8.40027 3.9911C7.7698 2.73025 6.87818 1.79487 5.61317 1.79487C4.15916 1.79487 3.09773 2.50353 2.46209 3.59322ZM10.1004 3.38343C10.131 3.31857 10.1626 3.25352 10.1951 3.1884C10.9108 1.75693 12.2628 0 14.5875 0C16.7233 0 18.3542 1.08621 19.289 2.68883C20.2083 4.26472 20.4427 6.30536 19.9453 8.29455C19.7098 9.23704 19.1065 10.2157 18.3944 11.1305C17.6694 12.0617 16.7707 13.003 15.8561 13.8748C14.0259 15.6192 12.0709 17.143 11.1602 17.8305C10.5314 18.3054 9.66933 18.3054 9.0405 17.8305C8.1299 17.143 6.17483 15.6192 4.34465 13.8748C3.43003 13.003 2.53127 12.0617 1.80632 11.1305C1.09425 10.2157 0.490986 9.23704 0.255373 8.29455C-0.241937 6.30536 -0.00755405 4.26473 0.911713 2.68883C1.84657 1.08621 3.47745 0 5.61317 0C7.93789 0 9.2899 1.75693 10.0056 3.18839C10.0382 3.25352 10.0698 3.31857 10.1004 3.38343Z" fill="#999998"/>
</svg>
