<svg width="18" height="22" viewBox="0 0 18 22" fill="none" xmlns="http://www.w3.org/2000/svg">
<path d="M8.724 0C3.261 0 0 3.275 0 8.761C0 13.528 2.854 15.449 4.555 16.169C4.708 16.234 4.8 16.373 4.8 16.54C4.8 18.973 4.8 22 8.724 22C12.648 22 12.649 18.969 12.649 16.534C12.649 16.367 12.741 16.228 12.893 16.163C14.586 15.442 17.428 13.521 17.428 8.761C17.428 3.194 14.255 0 8.724 0ZM8.724 20C7.496 20 6.974 19.888 6.838 17.897C7.413 17.97 8.037 18.006 8.724 18.006C9.411 18.006 10.037 17.969 10.613 17.895C10.484 19.895 9.979 20 8.724 20ZM12.109 14.323C11.438 14.609 10.946 15.177 10.747 15.854C10.436 15.908 10.102 15.948 9.743 15.973V10.966C10.483 10.699 11.068 10.184 11.485 9.765C11.875 9.374 11.873 8.741 11.482 8.351C11.09 7.961 10.459 7.963 10.067 8.354C8.991 9.438 8.413 9.389 7.382 8.354C6.991 7.962 6.359 7.96 5.967 8.351C5.576 8.741 5.574 9.374 5.964 9.765C6.56 10.363 7.148 10.763 7.742 10.973V15.976C7.369 15.951 7.022 15.911 6.7 15.856C6.499 15.179 6.007 14.613 5.333 14.328C3.812 13.683 1.999 12.195 1.999 8.762C1.999 3.174 5.655 2.001 8.723 2.001C11.791 2.001 15.427 3.174 15.427 8.762C15.427 12.191 13.622 13.679 12.108 14.324L12.109 14.323Z" fill="#999998"/>
</svg>
