<svg width="20" height="20" viewBox="0 0 20 20" fill="none" xmlns="http://www.w3.org/2000/svg">
<path fill-rule="evenodd" clip-rule="evenodd" d="M10 1.53846C5.32682 1.53846 1.53846 5.32682 1.53846 10C1.53846 14.6732 5.32682 18.4615 10 18.4615C14.6732 18.4615 18.4615 14.6732 18.4615 10C18.4615 5.32682 14.6732 1.53846 10 1.53846ZM0 10C0 4.47715 4.47715 0 10 0C15.5228 0 20 4.47715 20 10C20 15.5228 15.5228 20 10 20C4.47715 20 0 15.5228 0 10ZM9.17969 5.89744C9.17969 5.4726 9.52409 5.12821 9.94892 5.12821H10.0511C10.4759 5.12821 10.8203 5.4726 10.8203 5.89744V6C10.8203 6.42424 10.4768 6.7684 10.0526 6.76923L9.95043 6.76943C9.74615 6.76983 9.55011 6.68896 9.40553 6.54466C9.26094 6.40036 9.17969 6.20447 9.17969 6.0002V5.89744ZM10 8.20513C10.4248 8.20513 10.7692 8.54953 10.7692 8.97436V14.1026C10.7692 14.5274 10.4248 14.8718 10 14.8718C9.57517 14.8718 9.23077 14.5274 9.23077 14.1026V8.97436C9.23077 8.54953 9.57517 8.20513 10 8.20513Z" fill="#999999"/>
</svg>
