<svg width="18" height="18" viewBox="0 0 18 18" fill="none" xmlns="http://www.w3.org/2000/svg">
<path d="M8.99983 17.3334C10.1382 17.3334 11.2098 17.1216 12.2147 16.6979C13.2196 16.2742 14.106 15.689 14.874 14.9422C15.642 14.1955 16.2438 13.3336 16.6795 12.3564C17.1153 11.3793 17.3332 10.3373 17.3332 9.23042C17.3332 8.42014 17.2161 7.64958 16.9819 6.91873C16.7476 6.18788 16.4263 5.5166 16.0178 4.90491C15.6093 4.29321 15.1436 3.75434 14.6207 3.28829C14.4791 3.16119 14.3334 3.09101 14.1836 3.07777C14.0339 3.06453 13.8991 3.09234 13.7792 3.16119C13.6594 3.23004 13.5668 3.32536 13.5015 3.44717C13.4361 3.56898 13.4157 3.70138 13.4402 3.84437C13.4647 3.98737 13.5477 4.12506 13.6894 4.25746C14.3865 4.87181 14.9353 5.60664 15.3356 6.46194C15.736 7.31725 15.9388 8.24008 15.9442 9.23042C15.9442 10.1679 15.7659 11.0444 15.4092 11.86C15.0524 12.6756 14.5567 13.3918 13.9222 14.0088C13.2877 14.6258 12.5496 15.1091 11.7081 15.4586C10.8667 15.8081 9.96391 15.9829 8.99983 15.9829C8.03578 15.9829 7.13436 15.8081 6.29559 15.4586C5.4568 15.1091 4.72015 14.6258 4.08561 14.0088C3.45109 13.3918 2.95545 12.6756 2.59869 11.86C2.24194 11.0444 2.06356 10.1679 2.06356 9.23042C2.06901 8.23479 2.2719 7.30931 2.67222 6.454C3.07254 5.59869 3.61857 4.86386 4.31029 4.24952C4.45191 4.11712 4.53497 3.97942 4.55947 3.83643C4.58399 3.69344 4.56492 3.56103 4.50228 3.43922C4.43965 3.31742 4.34706 3.22209 4.22451 3.15324C4.10196 3.08439 3.96579 3.05659 3.81601 3.06983C3.66623 3.08307 3.52053 3.15324 3.37892 3.28035C2.85605 3.7464 2.39036 4.2866 1.98187 4.90094C1.57337 5.51528 1.25202 6.18788 1.01781 6.91873C0.783606 7.64958 0.666504 8.42014 0.666504 9.23042C0.666504 10.3373 0.884369 11.3793 1.3201 12.3564C1.75583 13.3336 2.35768 14.1955 3.12565 14.9422C3.89363 15.689 4.78006 16.2742 5.78496 16.6979C6.78986 17.1216 7.86148 17.3334 8.99983 17.3334ZM8.99983 9.15102C9.19591 9.15102 9.35521 9.08879 9.47775 8.96433C9.60034 8.83987 9.66163 8.67701 9.66163 8.47577V1.34199C9.66163 1.14074 9.60034 0.97789 9.47775 0.853433C9.35521 0.728977 9.19591 0.666748 8.99983 0.666748C8.80375 0.666748 8.6458 0.728977 8.52597 0.853433C8.40615 0.97789 8.34624 1.14074 8.34624 1.34199V8.47577C8.34624 8.67701 8.40615 8.83987 8.52597 8.96433C8.6458 9.08879 8.80375 9.15102 8.99983 9.15102Z" fill="#FF383C"/>
</svg>
