<svg width="20" height="20" viewBox="0 0 20 20" fill="none" xmlns="http://www.w3.org/2000/svg">
<path d="M4.3559 17.5H15.6438C16.0928 17.5 16.4449 17.4013 16.7002 17.2038C16.9555 17.0064 17.0832 16.7352 17.0832 16.3904C17.0832 15.8565 16.9191 15.2919 16.5908 14.6968C16.2625 14.1018 15.7911 13.5442 15.1766 13.0242C14.5622 12.5041 13.8186 12.0814 12.946 11.7561C12.0734 11.4307 11.0899 11.268 9.99565 11.268C8.90698 11.268 7.92634 11.4307 7.05372 11.7561C6.1811 12.0814 5.43615 12.5041 4.81887 13.0242C4.20158 13.5442 3.7302 14.1018 3.40472 14.6968C3.07924 15.2919 2.9165 15.8565 2.9165 16.3904C2.9165 16.7352 3.04417 17.0064 3.2995 17.2038C3.55483 17.4013 3.90697 17.5 4.3559 17.5ZM10.0041 9.77473C10.6045 9.77473 11.1601 9.61205 11.6707 9.28669C12.1814 8.96133 12.5924 8.52056 12.9039 7.96439C13.2153 7.40822 13.3711 6.78253 13.3711 6.08731C13.3711 5.40322 13.2153 4.79004 12.9039 4.24777C12.5924 3.7055 12.1814 3.27864 11.6707 2.96718C11.1601 2.65573 10.6045 2.5 10.0041 2.5C9.40361 2.5 8.84806 2.65851 8.33739 2.97553C7.82673 3.29255 7.41568 3.72358 7.10423 4.26863C6.79278 4.81368 6.63706 5.42547 6.63706 6.104C6.63706 6.79365 6.79278 7.41517 7.10423 7.96856C7.41568 8.52195 7.82673 8.96133 8.33739 9.28669C8.84806 9.61205 9.40361 9.77473 10.0041 9.77473Z" fill="#999999"/>
</svg>
