<svg width="24" height="24" viewBox="0 0 24 24" fill="none" xmlns="http://www.w3.org/2000/svg">
<path d="M13.36 5.22997C13.2587 5.31392 13.175 5.41702 13.1137 5.53337C13.0523 5.64972 13.0145 5.77702 13.0025 5.908C12.9904 6.03898 13.0043 6.17105 13.0433 6.29665C13.0824 6.42226 13.1458 6.53892 13.23 6.63997L16.86 11H5C4.73478 11 4.48043 11.1053 4.29289 11.2929C4.10536 11.4804 4 11.7348 4 12C4 12.2652 4.10536 12.5195 4.29289 12.7071C4.48043 12.8946 4.73478 13 5 13H16.86L13.23 17.36C13.146 17.4611 13.0826 17.5778 13.0437 17.7034C13.0047 17.8289 12.9909 17.961 13.003 18.0919C13.0151 18.2228 13.0528 18.3501 13.1141 18.4664C13.1753 18.5828 13.2589 18.6859 13.36 18.77C13.4611 18.854 13.5778 18.9173 13.7034 18.9563C13.829 18.9952 13.961 19.0091 14.0919 18.997C14.2229 18.9849 14.3501 18.9472 14.4665 18.8859C14.5828 18.8247 14.686 18.7411 14.77 18.64L19.77 12.64L19.86 12.49L19.93 12.36C20.0194 12.1283 20.0194 11.8716 19.93 11.64L19.86 11.51L19.77 11.36L14.77 5.35997C14.6861 5.25871 14.583 5.17501 14.4666 5.11366C14.3503 5.05231 14.2229 5.01451 14.092 5.00243C13.961 4.99036 13.8289 5.00424 13.7033 5.04329C13.5777 5.08233 13.461 5.14577 13.36 5.22997Z" fill="white"/>
</svg>
