<svg width="12" height="12" viewBox="0 0 12 12" fill="none" xmlns="http://www.w3.org/2000/svg">
<path d="M6 0C2.68615 0 0 2.68615 0 6C0 9.31385 2.68615 12 6 12C9.31385 12 12 9.31385 12 6C12 2.68615 9.31385 0 6 0ZM9.34985 4.29554L4.97169 8.67323C4.86185 8.78262 4.68415 8.78262 4.57431 8.67323L4.48615 8.58508L4.48569 8.58554L2.07692 6.15969C1.96708 6.04985 1.96708 5.87169 2.07692 5.76185L2.67415 5.16508C2.784 5.05523 2.96215 5.05523 3.072 5.16508L4.77462 6.88015L8.35431 3.30046C8.46415 3.19062 8.64231 3.19062 8.75215 3.30046L9.34938 3.89769C9.45969 4.00708 9.45969 4.18523 9.34985 4.29554Z" fill="#1C9202"/>
</svg>
