<svg width="7" height="11" viewBox="0 0 7 11" fill="none" xmlns="http://www.w3.org/2000/svg">
<path d="M6.625 5.50001C6.625 5.42704 6.60902 5.35888 6.57707 5.29551C6.54512 5.23215 6.49932 5.17359 6.43967 5.11982L1.37832 0.64977C1.26329 0.549923 1.1227 0.5 0.956544 0.5C0.850034 0.5 0.752045 0.523042 0.662577 0.569125C0.573108 0.615208 0.502812 0.677612 0.451687 0.756337C0.400562 0.835062 0.375 0.924348 0.375 1.02419C0.375 1.16628 0.430385 1.29109 0.541155 1.39862L5.19351 5.50001L0.541155 9.6014C0.430385 9.70891 0.375 9.83373 0.375 9.97585C0.375 10.0757 0.400562 10.165 0.451687 10.2437C0.502812 10.3224 0.573108 10.3848 0.662577 10.4309C0.752045 10.477 0.850034 10.5 0.956544 10.5C1.1227 10.5 1.26329 10.4482 1.37832 10.3445L6.43967 5.88019C6.49932 5.82643 6.54512 5.76787 6.57707 5.7045C6.60902 5.64114 6.625 5.57297 6.625 5.50001Z" fill="#999999"/>
</svg>
