<svg width="18" height="18" viewBox="0 0 18 18" fill="none" xmlns="http://www.w3.org/2000/svg">
<path d="M7 0.5C10.5898 0.5 13.5 3.41015 13.5 7C13.5 8.34211 13.091 9.58911 12.3936 10.625L16.8838 15.1162L17.2373 15.4697L15.4697 17.2373L10.626 12.3936C9.5899 13.0913 8.34239 13.5 7 13.5C3.41015 13.5 0.500001 10.5898 0.5 7C0.5 3.41015 3.41015 0.500001 7 0.5ZM7 3C4.79086 3 3 4.79086 3 7C3 9.20916 4.79086 11 7 11C9.20916 11 11 9.20916 11 7C11 4.79086 9.20916 3 7 3Z" fill="currentColor" stroke="none"/>
</svg>
