<svg width="27" height="27" viewBox="0 0 27 27" fill="none" xmlns="http://www.w3.org/2000/svg">
<mask id="path-1-inside-1_128_225" fill="white">
<path d="M25.3213 10.6667H23.2267C22.9497 10.6608 22.6808 10.5721 22.4548 10.4119C22.2287 10.2517 22.0559 10.0274 21.9587 9.768L21.952 9.75067C21.8391 9.4984 21.8042 9.21815 21.8517 8.94589C21.8992 8.67364 22.027 8.42179 22.2187 8.22267L23.6987 6.74267C23.9511 6.49014 24.0929 6.14771 24.0929 5.79067C24.0929 5.43362 23.9511 5.0912 23.6987 4.83867L21.832 2.972C21.5795 2.7196 21.237 2.57781 20.88 2.57781C20.523 2.57781 20.1805 2.7196 19.928 2.972L18.448 4.452C18.2489 4.64366 17.997 4.77145 17.7248 4.81896C17.4525 4.86647 17.1723 4.83155 16.92 4.71867H16.9027C16.6407 4.62114 16.4144 4.44673 16.2533 4.21832C16.0922 3.9899 16.0039 3.71814 16 3.43867V1.34533C16 0.988529 15.8583 0.646338 15.606 0.394039C15.3537 0.14174 15.0115 0 14.6547 0H12.012C11.6552 0 11.313 0.14174 11.0607 0.394039C10.8084 0.646338 10.6667 0.988529 10.6667 1.34533V3.43867C10.6609 3.71584 10.5722 3.98492 10.412 4.21118C10.2518 4.43744 10.0275 4.6105 9.768 4.708H9.75067C9.4984 4.82088 9.21815 4.85581 8.94589 4.80829C8.67364 4.76078 8.42179 4.63299 8.22267 4.44133L6.74267 2.96133C6.49014 2.70893 6.14771 2.56714 5.79067 2.56714C5.43362 2.56714 5.0912 2.70893 4.83867 2.96133L2.972 4.828C2.7196 5.08053 2.57781 5.42296 2.57781 5.78C2.57781 6.13704 2.7196 6.47947 2.972 6.732L4.452 8.212C4.64366 8.41112 4.77145 8.66297 4.81896 8.93523C4.86647 9.20749 4.83155 9.48773 4.71867 9.74V9.75733C4.62246 10.0204 4.44876 10.2481 4.22048 10.4105C3.9922 10.5728 3.72008 10.6621 3.44 10.6667H1.34533C0.988529 10.6667 0.646338 10.8084 0.394039 11.0607C0.14174 11.313 0 11.6552 0 12.012V14.6547C0 15.0115 0.14174 15.3537 0.394039 15.606C0.646338 15.8583 0.988529 16 1.34533 16H3.44C3.71698 16.0058 3.98586 16.0946 4.21189 16.2548C4.43793 16.415 4.61074 16.6393 4.708 16.8987V16.916C4.82088 17.1683 4.85581 17.4485 4.80829 17.7208C4.76078 17.993 4.63299 18.2449 4.44133 18.444L2.96133 19.924C2.70893 20.1765 2.56714 20.519 2.56714 20.876C2.56714 21.233 2.70893 21.5755 2.96133 21.828L4.828 23.6947C5.08053 23.9471 5.42296 24.0889 5.78 24.0889C6.13704 24.0889 6.47947 23.9471 6.732 23.6947L8.212 22.2147C8.41112 22.023 8.66297 21.8952 8.93523 21.8477C9.20749 21.8002 9.48773 21.8351 9.74 21.948L9.75733 21.9547C10.0194 22.0505 10.2464 22.2232 10.4086 22.4501C10.5709 22.6771 10.6608 22.9477 10.6667 23.2267V25.3213C10.6667 25.6781 10.8084 26.0203 11.0607 26.2726C11.313 26.5249 11.6552 26.6667 12.012 26.6667H14.6547C14.8313 26.6667 15.0063 26.6319 15.1695 26.5643C15.3327 26.4967 15.481 26.3976 15.606 26.2726C15.7309 26.1477 15.83 25.9994 15.8976 25.8362C15.9652 25.6729 16 25.498 16 25.3213V23.2267C16.0058 22.9497 16.0946 22.6808 16.2548 22.4548C16.415 22.2287 16.6393 22.0559 16.8987 21.9587L16.916 21.952C17.1683 21.8391 17.4485 21.8042 17.7208 21.8517C17.993 21.8992 18.2449 22.027 18.444 22.2187L19.924 23.6987C20.1765 23.9511 20.519 24.0929 20.876 24.0929C21.233 24.0929 21.5755 23.9511 21.828 23.6987L23.6947 21.832C23.9471 21.5795 24.0889 21.237 24.0889 20.88C24.0889 20.523 23.9471 20.1805 23.6947 19.928L22.2147 18.448C22.023 18.2489 21.8952 17.997 21.8477 17.7248C21.8002 17.4525 21.8351 17.1723 21.948 16.92L21.9547 16.9027C22.0515 16.6419 22.2247 16.4163 22.4516 16.2553C22.6784 16.0943 22.9485 16.0053 23.2267 16H25.3213C25.6781 16 26.0203 15.8583 26.2726 15.606C26.5249 15.3537 26.6667 15.0115 26.6667 14.6547V12.012C26.6667 11.8353 26.6319 11.6604 26.5643 11.4972C26.4967 11.3339 26.3976 11.1856 26.2726 11.0607C26.1477 10.9358 25.9994 10.8367 25.8362 10.7691C25.6729 10.7015 25.498 10.6667 25.3213 10.6667ZM13.3333 17.3333C12.5422 17.3333 11.7688 17.0987 11.1111 16.6592C10.4533 16.2197 9.94057 15.595 9.63782 14.8641C9.33506 14.1332 9.25585 13.3289 9.41019 12.553C9.56453 11.777 9.9455 11.0643 10.5049 10.5049C11.0643 9.9455 11.777 9.56453 12.553 9.41019C13.3289 9.25585 14.1332 9.33506 14.8641 9.63782C15.595 9.94057 16.2197 10.4533 16.6592 11.1111C17.0987 11.7688 17.3333 12.5422 17.3333 13.3333C17.3333 14.3942 16.9119 15.4116 16.1618 16.1618C15.4116 16.9119 14.3942 17.3333 13.3333 17.3333Z"/>
</mask>
<path d="M25.3213 10.6667H23.2267C22.9497 10.6608 22.6808 10.5721 22.4548 10.4119C22.2287 10.2517 22.0559 10.0274 21.9587 9.768L21.952 9.75067C21.8391 9.4984 21.8042 9.21815 21.8517 8.94589C21.8992 8.67364 22.027 8.42179 22.2187 8.22267L23.6987 6.74267C23.9511 6.49014 24.0929 6.14771 24.0929 5.79067C24.0929 5.43362 23.9511 5.0912 23.6987 4.83867L21.832 2.972C21.5795 2.7196 21.237 2.57781 20.88 2.57781C20.523 2.57781 20.1805 2.7196 19.928 2.972L18.448 4.452C18.2489 4.64366 17.997 4.77145 17.7248 4.81896C17.4525 4.86647 17.1723 4.83155 16.92 4.71867H16.9027C16.6407 4.62114 16.4144 4.44673 16.2533 4.21832C16.0922 3.9899 16.0039 3.71814 16 3.43867V1.34533C16 0.988529 15.8583 0.646338 15.606 0.394039C15.3537 0.14174 15.0115 0 14.6547 0H12.012C11.6552 0 11.313 0.14174 11.0607 0.394039C10.8084 0.646338 10.6667 0.988529 10.6667 1.34533V3.43867C10.6609 3.71584 10.5722 3.98492 10.412 4.21118C10.2518 4.43744 10.0275 4.6105 9.768 4.708H9.75067C9.4984 4.82088 9.21815 4.85581 8.94589 4.80829C8.67364 4.76078 8.42179 4.63299 8.22267 4.44133L6.74267 2.96133C6.49014 2.70893 6.14771 2.56714 5.79067 2.56714C5.43362 2.56714 5.0912 2.70893 4.83867 2.96133L2.972 4.828C2.7196 5.08053 2.57781 5.42296 2.57781 5.78C2.57781 6.13704 2.7196 6.47947 2.972 6.732L4.452 8.212C4.64366 8.41112 4.77145 8.66297 4.81896 8.93523C4.86647 9.20749 4.83155 9.48773 4.71867 9.74V9.75733C4.62246 10.0204 4.44876 10.2481 4.22048 10.4105C3.9922 10.5728 3.72008 10.6621 3.44 10.6667H1.34533C0.988529 10.6667 0.646338 10.8084 0.394039 11.0607C0.14174 11.313 0 11.6552 0 12.012V14.6547C0 15.0115 0.14174 15.3537 0.394039 15.606C0.646338 15.8583 0.988529 16 1.34533 16H3.44C3.71698 16.0058 3.98586 16.0946 4.21189 16.2548C4.43793 16.415 4.61074 16.6393 4.708 16.8987V16.916C4.82088 17.1683 4.85581 17.4485 4.80829 17.7208C4.76078 17.993 4.63299 18.2449 4.44133 18.444L2.96133 19.924C2.70893 20.1765 2.56714 20.519 2.56714 20.876C2.56714 21.233 2.70893 21.5755 2.96133 21.828L4.828 23.6947C5.08053 23.9471 5.42296 24.0889 5.78 24.0889C6.13704 24.0889 6.47947 23.9471 6.732 23.6947L8.212 22.2147C8.41112 22.023 8.66297 21.8952 8.93523 21.8477C9.20749 21.8002 9.48773 21.8351 9.74 21.948L9.75733 21.9547C10.0194 22.0505 10.2464 22.2232 10.4086 22.4501C10.5709 22.6771 10.6608 22.9477 10.6667 23.2267V25.3213C10.6667 25.6781 10.8084 26.0203 11.0607 26.2726C11.313 26.5249 11.6552 26.6667 12.012 26.6667H14.6547C14.8313 26.6667 15.0063 26.6319 15.1695 26.5643C15.3327 26.4967 15.481 26.3976 15.606 26.2726C15.7309 26.1477 15.83 25.9994 15.8976 25.8362C15.9652 25.6729 16 25.498 16 25.3213V23.2267C16.0058 22.9497 16.0946 22.6808 16.2548 22.4548C16.415 22.2287 16.6393 22.0559 16.8987 21.9587L16.916 21.952C17.1683 21.8391 17.4485 21.8042 17.7208 21.8517C17.993 21.8992 18.2449 22.027 18.444 22.2187L19.924 23.6987C20.1765 23.9511 20.519 24.0929 20.876 24.0929C21.233 24.0929 21.5755 23.9511 21.828 23.6987L23.6947 21.832C23.9471 21.5795 24.0889 21.237 24.0889 20.88C24.0889 20.523 23.9471 20.1805 23.6947 19.928L22.2147 18.448C22.023 18.2489 21.8952 17.997 21.8477 17.7248C21.8002 17.4525 21.8351 17.1723 21.948 16.92L21.9547 16.9027C22.0515 16.6419 22.2247 16.4163 22.4516 16.2553C22.6784 16.0943 22.9485 16.0053 23.2267 16H25.3213C25.6781 16 26.0203 15.8583 26.2726 15.606C26.5249 15.3537 26.6667 15.0115 26.6667 14.6547V12.012C26.6667 11.8353 26.6319 11.6604 26.5643 11.4972C26.4967 11.3339 26.3976 11.1856 26.2726 11.0607C26.1477 10.9358 25.9994 10.8367 25.8362 10.7691C25.6729 10.7015 25.498 10.6667 25.3213 10.6667ZM13.3333 17.3333C12.5422 17.3333 11.7688 17.0987 11.1111 16.6592C10.4533 16.2197 9.94057 15.595 9.63782 14.8641C9.33506 14.1332 9.25585 13.3289 9.41019 12.553C9.56453 11.777 9.9455 11.0643 10.5049 10.5049C11.0643 9.9455 11.777 9.56453 12.553 9.41019C13.3289 9.25585 14.1332 9.33506 14.8641 9.63782C15.595 9.94057 16.2197 10.4533 16.6592 11.1111C17.0987 11.7688 17.3333 12.5422 17.3333 13.3333C17.3333 14.3942 16.9119 15.4116 16.1618 16.1618C15.4116 16.9119 14.3942 17.3333 13.3333 17.3333Z" fill="white" stroke="black" stroke-width="2" mask="url(#path-1-inside-1_128_225)"/>
</svg>
