<svg width="16" height="17" viewBox="0 0 16 17" fill="none" xmlns="http://www.w3.org/2000/svg">
<path fill-rule="evenodd" clip-rule="evenodd" d="M7.54544 0.85475C7.79649 0.604081 8.20351 0.604081 8.45456 0.85475L8.88314 1.28267L8.88314 1.28267L11.026 3.42231C11.277 3.67299 11.277 4.07941 11.026 4.33009C10.7749 4.58076 10.3679 4.58076 10.1169 4.33009L8.64286 2.8583V9.01135C8.64286 9.36585 8.35504 9.65324 8 9.65324C7.64496 9.65324 7.35714 9.36585 7.35714 9.01135V2.8583L5.88314 4.33009C5.63209 4.58076 5.22505 4.58076 4.974 4.33009C4.72295 4.07941 4.72295 3.67299 4.974 3.42231L7.11686 1.28267L7.11686 1.28267L7.54544 0.85475ZM2 7.08566C1.88165 7.08566 1.78571 7.18146 1.78571 7.29962V15.0023C1.78571 15.1205 1.88165 15.2163 2 15.2163H14C14.1183 15.2163 14.2143 15.1205 14.2143 15.0023V7.29963C14.2143 7.18146 14.1183 7.08566 14 7.08566H11.4286C11.0735 7.08566 10.7857 6.79828 10.7857 6.44377C10.7857 6.08926 11.0735 5.80188 11.4286 5.80188H14C14.8284 5.80188 15.5 6.47244 15.5 7.29963V15.0023C15.5 15.8295 14.8284 16.5001 14 16.5001H2C1.17157 16.5001 0.5 15.8295 0.5 15.0023V7.29962C0.5 6.47244 1.17157 5.80188 2 5.80188H4.57143C4.92647 5.80188 5.21429 6.08926 5.21429 6.44377C5.21429 6.79828 4.92647 7.08566 4.57143 7.08566H2Z" fill="#999999"/>
</svg>
