<svg width="12" height="12" viewBox="0 0 12 12" fill="none" xmlns="http://www.w3.org/2000/svg">
<path d="M6 12C2.68615 12 0 9.31385 0 6C0 2.68615 2.68615 0 6 0C9.31385 0 12 2.68615 12 6C12 9.31385 9.31385 12 6 12ZM8.75123 4.25031C8.86385 4.13769 8.86385 3.95446 8.75123 3.84185L8.13831 3.22938C8.02569 3.11677 7.84246 3.11677 7.72985 3.22938L5.994 4.96523L4.25815 3.22938C4.14554 3.11677 3.96231 3.11677 3.84969 3.22938L3.23677 3.84185C3.12415 3.95446 3.12415 4.13769 3.23677 4.25031L4.97308 5.98662L3.23677 7.722C3.12415 7.83462 3.12415 8.01785 3.23677 8.13046L3.84969 8.74338C3.96231 8.856 4.14554 8.856 4.25815 8.74338L5.994 7.00708L7.72985 8.74338C7.84246 8.856 8.02569 8.856 8.13831 8.74338L8.75123 8.13046C8.86385 8.01785 8.86385 7.83462 8.75123 7.722L7.01492 5.98662L8.75123 4.25031Z" fill="#920202"/>
</svg>
