<svg width="31" height="45" viewBox="0 0 31 45" fill="none" xmlns="http://www.w3.org/2000/svg">
<path d="M5.25391 41.7793V43H0.585938V35.9541H5.25391V37.1699H2.06055V38.8691H5.07324V40.002H2.06055V41.7793H5.25391ZM10.9814 37.7656L9.18457 43H7.57324L5.76172 37.7656H7.29004L8.37891 41.7402H8.4082L9.49219 37.7656H10.9814ZM13.6816 38.708C13.0566 38.708 12.6074 39.1816 12.5586 39.8359H14.7803C14.751 39.167 14.3164 38.708 13.6816 38.708ZM14.7998 41.3984H16.1084C15.9521 42.4238 15.0146 43.1123 13.7207 43.1123C12.1094 43.1123 11.1426 42.082 11.1426 40.4072C11.1426 38.7373 12.1191 37.6533 13.667 37.6533C15.1904 37.6533 16.1523 38.6836 16.1523 40.2754V40.71H12.5439V40.7979C12.5439 41.5449 13.0176 42.0576 13.7451 42.0576C14.2676 42.0576 14.668 41.7988 14.7998 41.3984ZM16.8896 43V37.7656H18.2666V38.6982H18.2959C18.5742 38.0488 19.126 37.668 19.9316 37.668C21.0938 37.668 21.748 38.4004 21.748 39.626V43H20.3223V39.9238C20.3223 39.2402 20 38.8496 19.3604 38.8496C18.7207 38.8496 18.3154 39.3184 18.3154 39.9971V43H16.8896ZM23.0322 36.5596H24.458V37.7656H25.4248V38.8398H24.458V41.3447C24.458 41.7451 24.6533 41.9355 25.0732 41.9355C25.2002 41.9355 25.332 41.9258 25.4199 41.9111V42.9609C25.2734 42.9951 25.0293 43.0195 24.7412 43.0195C23.5107 43.0195 23.0322 42.6094 23.0322 41.5889V38.8398H22.2949V37.7656H23.0322V36.5596ZM26.1182 39.3037C26.1182 38.3076 26.9824 37.6533 28.3252 37.6533C29.6387 37.6533 30.4932 38.3174 30.5127 39.333H29.1992C29.1699 38.9131 28.833 38.6543 28.3057 38.6543C27.8125 38.6543 27.4902 38.8789 27.4902 39.2158C27.4902 39.4746 27.7148 39.6504 28.1738 39.7578L29.1748 39.9727C30.2246 40.207 30.6494 40.6221 30.6494 41.4033C30.6494 42.4336 29.7021 43.1123 28.3203 43.1123C26.9238 43.1123 26.0645 42.4385 25.9863 41.418H27.3779C27.4463 41.8574 27.793 42.1113 28.3594 42.1113C28.9014 42.1113 29.2285 41.8965 29.2285 41.5547C29.2285 41.291 29.0527 41.1445 28.584 41.0322L27.6172 40.8174C26.626 40.5928 26.1182 40.0752 26.1182 39.3037Z" fill="#666666"/>
<path d="M28.6778 4.74175C28.5569 4.31924 28.2273 3.98836 27.8035 3.86747C27.7157 3.84201 26.6861 3.55568 24.9083 3.25534V1.27261C24.9083 0.57013 24.3382 0 23.6357 0C22.9332 0 22.3631 0.57013 22.3631 1.27261V2.89901C20.5967 2.69794 18.4574 2.54522 16 2.54522C13.5426 2.54522 11.4033 2.69794 9.63694 2.89901V1.27261C9.63694 0.57013 9.06681 0 8.36433 0C7.66185 0 7.09172 0.57013 7.09172 1.27261V3.25534C5.31388 3.55568 4.28434 3.84201 4.19653 3.86747C3.77402 3.98836 3.44314 4.31797 3.32224 4.74175C3.26879 4.9301 2 9.43514 2 15.2726C2 21.1101 3.26752 25.6139 3.32224 25.8035C3.44314 26.226 3.77275 26.5569 4.19653 26.6778C4.38487 26.7312 8.90392 28 16 28C23.0961 28 27.6139 26.7325 27.8035 26.6778C28.226 26.5569 28.5569 26.2273 28.6778 25.8035C28.7312 25.6151 30 21.1101 30 15.2726C30 9.43514 28.7325 4.93137 28.6778 4.74175ZM16.0013 5.09172C21.1592 5.09172 24.9223 5.80693 26.4087 6.14417C26.541 6.70666 26.7294 7.5924 26.9088 8.70085C25.0648 8.30125 21.2164 7.63567 16.0013 7.63567C10.7861 7.63567 6.93773 8.30125 5.09372 8.70085C5.27443 7.59113 5.46278 6.70666 5.59385 6.14417C7.07899 5.80693 10.8434 5.09172 16.0013 5.09172ZM16.0013 25.4535C10.8434 25.4535 7.08027 24.7383 5.59385 24.4011C5.25534 22.9579 4.54777 19.4481 4.54777 15.2726C4.54777 13.8867 4.62922 12.5849 4.7463 11.3975C5.59131 11.1799 9.79093 10.1822 16.0013 10.1822C22.2116 10.1822 26.4061 11.1786 27.2562 11.3975C27.3733 12.5861 27.4548 13.8867 27.4548 15.2726C27.4548 19.4481 26.7472 22.9579 26.4087 24.4011C24.9236 24.7383 21.1592 25.4535 16.0013 25.4535ZM20.8843 16.3378C20.9912 16.6839 20.8843 17.0594 20.6145 17.2999C20.0609 17.7924 19.5264 18.2671 18.9894 18.7239C19.2235 19.5397 19.4195 20.3567 19.5748 21.1712C19.6397 21.511 19.5099 21.8596 19.2375 22.0722C18.9639 22.286 18.5961 22.3292 18.2805 22.1816C17.447 21.7947 16.6974 21.3926 16.0013 20.9688C15.3039 21.3926 14.5556 21.7947 13.722 22.1816C13.4064 22.3292 13.0386 22.286 12.765 22.0722C12.4927 21.8584 12.3629 21.511 12.4278 21.1712C12.583 20.3567 12.779 19.541 13.0132 18.7239C12.4761 18.2671 11.9416 17.7924 11.3881 17.2999C11.117 17.0594 11.0114 16.6827 11.1183 16.3378C11.2252 15.9916 11.523 15.7409 11.8831 15.6951C12.7192 15.5869 13.4611 15.508 14.1585 15.4559C14.4665 14.7127 14.8063 13.972 15.1766 13.2364C15.3344 12.9259 15.6538 12.7045 16.0013 12.7299C16.3487 12.7045 16.6681 12.9259 16.8259 13.2364C17.1963 13.9733 17.536 14.7139 17.844 15.4559C18.5414 15.508 19.2846 15.5869 20.1194 15.6951C20.4796 15.7409 20.7774 15.9929 20.8843 16.3378Z" fill="#666666"/>
</svg>
