<svg width="28" height="43" viewBox="0 0 28 43" fill="none" xmlns="http://www.w3.org/2000/svg">
<path d="M6.70898 41H5.23438V38.0312H2.06055V41H0.585938V33.9541H2.06055V36.8154H5.23438V33.9541H6.70898V41ZM10.1611 41.1123C8.5791 41.1123 7.56836 40.0967 7.56836 38.3779C7.56836 36.6836 8.59375 35.6533 10.1611 35.6533C11.7285 35.6533 12.7539 36.6787 12.7539 38.3779C12.7539 40.1016 11.7432 41.1123 10.1611 41.1123ZM10.1611 40.0234C10.8594 40.0234 11.3037 39.4326 11.3037 38.3828C11.3037 37.3428 10.8545 36.7422 10.1611 36.7422C9.46777 36.7422 9.01367 37.3428 9.01367 38.3828C9.01367 39.4326 9.45801 40.0234 10.1611 40.0234ZM13.4912 41V35.7656H14.8682V36.7129H14.8975C15.1172 36.083 15.6787 35.668 16.3916 35.668C17.1484 35.668 17.6758 36.0586 17.8516 36.7422H17.8809C18.1152 36.083 18.7402 35.668 19.5068 35.668C20.5322 35.668 21.2207 36.3711 21.2207 37.4258V41H19.7949V37.7822C19.7949 37.1768 19.4922 36.8447 18.9404 36.8447C18.3984 36.8447 18.042 37.2402 18.042 37.8213V41H16.6699V37.7383C16.6699 37.1768 16.3525 36.8447 15.8252 36.8447C15.2832 36.8447 14.917 37.2549 14.917 37.8408V41H13.4912ZM24.4727 36.708C23.8477 36.708 23.3984 37.1816 23.3496 37.8359H25.5713C25.542 37.167 25.1074 36.708 24.4727 36.708ZM25.5908 39.3984H26.8994C26.7432 40.4238 25.8057 41.1123 24.5117 41.1123C22.9004 41.1123 21.9336 40.082 21.9336 38.4072C21.9336 36.7373 22.9102 35.6533 24.458 35.6533C25.9814 35.6533 26.9434 36.6836 26.9434 38.2754V38.71H23.335V38.7979C23.335 39.5449 23.8086 40.0576 24.5361 40.0576C25.0586 40.0576 25.459 39.7988 25.5908 39.3984Z" fill="white"/>
<path d="M26.4765 2.22229C26.3442 1.82206 26.0133 1.51447 25.5958 1.40453C25.3769 1.34771 20.1638 0 14.0013 0C7.83873 0 2.62564 1.34771 2.40545 1.40453C1.98673 1.51447 1.65327 1.82453 1.52345 2.226C1.46109 2.41747 0 6.98559 0 13.0756C0 19.2187 1.46236 23.7399 1.52473 23.9289C1.65582 24.3291 1.988 24.6367 2.40545 24.7466C2.62436 24.8035 7.83618 26.1512 14 26.1512C20.1638 26.1512 25.3756 24.8035 25.5933 24.7466C26.0133 24.6367 26.3467 24.3266 26.4765 23.9252C26.5389 23.7337 27.9987 19.1656 27.9987 13.0756C27.9987 6.93247 26.5389 2.41253 26.4765 2.22229ZM3.76218 3.62682C5.34927 3.27353 9.45382 2.47059 14 2.47059C18.5462 2.47059 22.6571 3.27353 24.2391 3.62682C24.6235 5.04618 25.4545 8.63841 25.4545 13.0744C25.4545 16.1774 25.0409 18.8889 24.6616 20.7208C23.856 19.7573 22.8773 18.6678 21.756 17.6054C16.3024 12.4419 10.9607 11.2165 10.7355 11.1658C10.4695 11.1078 10.1882 11.1337 9.93745 11.2412C9.758 11.3178 6.12818 12.9101 2.71727 16.6209C2.61291 15.5289 2.54673 14.3368 2.54673 13.0744C2.54673 8.67176 3.38036 5.05606 3.76345 3.62559L3.76218 3.62682ZM3.75964 22.5244C3.612 21.9784 3.39691 21.1099 3.18945 19.9945C5.95509 16.2528 9.43091 14.2738 10.5802 13.6883C11.8567 14.0712 15.8976 15.5116 19.978 19.3744C21.2062 20.538 22.2613 21.7498 23.086 22.7628C21.0878 23.1506 17.6884 23.6794 14 23.6794C9.44236 23.6794 5.34164 22.8776 3.75964 22.5244Z" fill="white"/>
<path d="M19.8589 12.4896C23.0471 12.4896 23.7165 10.4538 23.7165 8.74418C23.7165 7.03453 23.0471 5 19.8589 5C16.6707 5 16 7.03577 16 8.74418C16 10.4526 16.6695 12.4896 19.8589 12.4896ZM19.8589 7.47059C20.9051 7.47059 21.1711 7.59535 21.1711 8.74418C21.1711 9.86829 20.9076 10.019 19.8589 10.019C18.8102 10.019 18.5455 9.893 18.5455 8.74418C18.5455 7.59535 18.8115 7.47059 19.8589 7.47059Z" fill="white"/>
</svg>
