<svg width="30" height="43" viewBox="0 0 30 43" fill="none" xmlns="http://www.w3.org/2000/svg">
<path d="M15 0C5.18727 0 1 4.18727 1 14C1 23.8127 5.18727 28 15 28C24.8127 28 29 23.8127 29 14C29 4.18727 24.8127 0 15 0ZM9.53618 24.7864C10.016 22.8213 11.2798 21.6364 15 21.6364C18.7202 21.6364 19.9853 22.8213 20.4638 24.7864C18.9671 25.2407 17.1624 25.4545 15 25.4545C12.8376 25.4545 11.0329 25.2407 9.53618 24.7864ZM22.7891 23.7109C21.5011 19.6165 17.8051 19.0896 15.0013 19.0896C12.1975 19.0896 8.50145 19.6153 7.21345 23.7109C4.63236 21.9927 3.54673 18.9076 3.54673 13.9987C3.54545 5.64964 6.64964 2.54545 15 2.54545C23.3504 2.54545 26.4545 5.64964 26.4545 14C26.4545 18.9089 25.3689 21.994 22.7878 23.7122L22.7891 23.7109ZM15 6.36364C11.5751 6.36364 9.90909 8.02964 9.90909 11.4545C9.90909 14.8795 11.5751 16.5455 15 16.5455C18.4249 16.5455 20.0909 14.8795 20.0909 11.4545C20.0909 8.02964 18.4249 6.36364 15 6.36364ZM15 14C12.9776 14 12.4545 13.4769 12.4545 11.4545C12.4545 9.43218 12.9776 8.90909 15 8.90909C17.0224 8.90909 17.5455 9.43218 17.5455 11.4545C17.5455 13.4769 17.0224 14 15 14Z" fill="#666666"/>
<path d="M0.585938 33.9541H3.45215C4.89746 33.9541 5.89355 34.916 5.89355 36.3662C5.89355 37.8115 4.86328 38.7783 3.37891 38.7783H2.06055V41H0.585938V33.9541ZM2.06055 35.1211V37.626H3.05664C3.90137 37.626 4.39453 37.1768 4.39453 36.3711C4.39453 35.5703 3.90625 35.1211 3.06152 35.1211H2.06055ZM6.64551 41V35.7656H8.02246V36.708H8.05176C8.2373 36.0439 8.68164 35.6826 9.29688 35.6826C9.46289 35.6826 9.60449 35.707 9.70215 35.7363V36.9912C9.58496 36.9424 9.38965 36.9082 9.18457 36.9082C8.48145 36.9082 8.07129 37.3379 8.07129 38.0752V41H6.64551ZM12.5146 41.1123C10.9326 41.1123 9.92188 40.0967 9.92188 38.3779C9.92188 36.6836 10.9473 35.6533 12.5146 35.6533C14.082 35.6533 15.1074 36.6787 15.1074 38.3779C15.1074 40.1016 14.0967 41.1123 12.5146 41.1123ZM12.5146 40.0234C13.2129 40.0234 13.6572 39.4326 13.6572 38.3828C13.6572 37.3428 13.208 36.7422 12.5146 36.7422C11.8213 36.7422 11.3672 37.3428 11.3672 38.3828C11.3672 39.4326 11.8115 40.0234 12.5146 40.0234ZM16.2256 41V36.8398H15.5127V35.79H16.2256V35.3945C16.2256 34.3691 16.709 33.8906 17.9492 33.8906C18.2129 33.8906 18.5107 33.9199 18.6768 33.9541V34.8965C18.5742 34.877 18.4326 34.8672 18.291 34.8672C17.8223 34.8672 17.6172 35.0723 17.6172 35.4434V35.79H18.6572V36.8398H17.6514V41H16.2256ZM19.4336 41V35.7656H20.8594V41H19.4336ZM20.1465 35.1895C19.7168 35.1895 19.3848 34.8623 19.3848 34.4521C19.3848 34.0371 19.7168 33.7148 20.1465 33.7148C20.5762 33.7148 20.9082 34.0371 20.9082 34.4521C20.9082 34.8623 20.5762 35.1895 20.1465 35.1895ZM21.8457 41V33.9541H23.2715V41H21.8457ZM26.582 36.708C25.957 36.708 25.5078 37.1816 25.459 37.8359H27.6807C27.6514 37.167 27.2168 36.708 26.582 36.708ZM27.7002 39.3984H29.0088C28.8525 40.4238 27.915 41.1123 26.6211 41.1123C25.0098 41.1123 24.043 40.082 24.043 38.4072C24.043 36.7373 25.0195 35.6533 26.5674 35.6533C28.0908 35.6533 29.0527 36.6836 29.0527 38.2754V38.71H25.4443V38.7979C25.4443 39.5449 25.918 40.0576 26.6455 40.0576C27.168 40.0576 27.5684 39.7988 27.7002 39.3984Z" fill="#666666"/>
</svg>
