<svg width="28" height="42" viewBox="0 0 28 42" fill="none" xmlns="http://www.w3.org/2000/svg">
<path d="M3.70117 40.1221C1.65039 40.1221 0.366211 38.75 0.366211 36.4746C0.366211 34.2041 1.66016 32.832 3.70117 32.832C5.39551 32.832 6.68457 33.9062 6.79688 35.4834H5.36133C5.22461 34.6191 4.56055 34.0527 3.70117 34.0527C2.58789 34.0527 1.87012 34.9854 1.87012 36.4697C1.87012 37.9736 2.57812 38.9014 3.70605 38.9014C4.58008 38.9014 5.20996 38.3887 5.36621 37.5537H6.80176C6.63574 39.126 5.42969 40.1221 3.70117 40.1221ZM9.58496 39.0527C10.2051 39.0527 10.7178 38.6475 10.7178 38.0811V37.7002L9.61426 37.7686C9.08203 37.8076 8.7793 38.0469 8.7793 38.418C8.7793 38.8086 9.10156 39.0527 9.58496 39.0527ZM9.11621 40.083C8.12012 40.083 7.36328 39.4385 7.36328 38.4961C7.36328 37.5439 8.0957 36.9922 9.39941 36.9141L10.7178 36.8359V36.4893C10.7178 36.001 10.376 35.7178 9.83887 35.7178C9.30664 35.7178 8.96973 35.9814 8.90137 36.3672H7.59766C7.65137 35.3516 8.51562 34.6533 9.90234 34.6533C11.2451 34.6533 12.1191 35.3467 12.1191 36.4014V40H10.7422V39.1992H10.7129C10.4199 39.7559 9.77051 40.083 9.11621 40.083ZM13.042 40V34.7656H14.4189V35.708H14.4482C14.6338 35.0439 15.0781 34.6826 15.6934 34.6826C15.8594 34.6826 16.001 34.707 16.0986 34.7363V35.9912C15.9814 35.9424 15.7861 35.9082 15.5811 35.9082C14.8779 35.9082 14.4678 36.3379 14.4678 37.0752V40H13.042ZM18.4521 40.083C17.1436 40.083 16.3184 39.0479 16.3184 37.373C16.3184 35.7129 17.1484 34.6826 18.4619 34.6826C19.2188 34.6826 19.8047 35.083 20.0586 35.6641H20.0879V32.9541H21.5137V40H20.1074V39.1016H20.083C19.8291 39.6777 19.2236 40.083 18.4521 40.083ZM18.9355 35.8252C18.2178 35.8252 17.7783 36.4258 17.7783 37.3828C17.7783 38.3447 18.2178 38.9355 18.9355 38.9355C19.6436 38.9355 20.0977 38.3398 20.0977 37.3828C20.0977 36.4307 19.6436 35.8252 18.9355 35.8252ZM22.3779 36.3037C22.3779 35.3076 23.2422 34.6533 24.585 34.6533C25.8984 34.6533 26.7529 35.3174 26.7725 36.333H25.459C25.4297 35.9131 25.0928 35.6543 24.5654 35.6543C24.0723 35.6543 23.75 35.8789 23.75 36.2158C23.75 36.4746 23.9746 36.6504 24.4336 36.7578L25.4346 36.9727C26.4844 37.207 26.9092 37.6221 26.9092 38.4033C26.9092 39.4336 25.9619 40.1123 24.5801 40.1123C23.1836 40.1123 22.3242 39.4385 22.2461 38.418H23.6377C23.7061 38.8574 24.0527 39.1113 24.6191 39.1113C25.1611 39.1113 25.4883 38.8965 25.4883 38.5547C25.4883 38.291 25.3125 38.1445 24.8438 38.0322L23.877 37.8174C22.8857 37.5928 22.3779 37.0752 22.3779 36.3037Z" fill="#666666"/>
<path d="M11.1388 6.90198C10.4937 6.90198 9.97217 7.42464 9.97217 8.06864C9.97217 8.71264 10.4937 9.23531 11.1388 9.23531H16.2617C16.9068 9.23531 17.4283 8.71264 17.4283 8.06864C17.4283 7.42464 16.9068 6.90198 16.2617 6.90198H11.1388Z" fill="#666666"/>
<path d="M24.8809 23.6693L23.6081 22.4116C24.0211 21.6498 24.2439 20.706 24.2649 19.5895C24.2078 16.3916 22.3411 14.5471 19.1269 14.5261C15.9291 14.546 14.0613 16.3916 14.0029 19.5883V19.6315C14.0636 22.8771 15.8824 24.675 19.1398 24.6936C20.2504 24.6878 21.1931 24.472 21.9561 24.0613L23.2394 25.3295C23.4669 25.5535 23.7633 25.6666 24.0596 25.6666C24.3606 25.6666 24.6616 25.5511 24.8903 25.3201C25.3429 24.8616 25.3383 24.1231 24.8798 23.6705L24.8809 23.6693ZM16.3363 19.6105C16.3771 17.6691 17.1903 16.8723 19.1258 16.8606C21.0333 16.8723 21.8989 17.7275 21.9316 19.5895C21.8954 21.5728 21.1091 22.3498 19.1398 22.3615C17.1914 22.351 16.3783 21.553 16.3363 19.6116V19.6105Z" fill="#666666"/>
<path d="M11.6065 22.4163C9.22533 22.2157 7.21517 21.7233 6.248 21.455C5.95867 20.0923 5.33333 16.66 5.33333 12.4192C5.33333 8.211 5.95983 4.7565 6.24917 3.3845C7.49167 3.04033 10.4457 2.33217 13.7007 2.33217C16.9557 2.33217 19.9143 3.04033 21.1545 3.3845C21.4368 4.70983 22.0388 7.99983 22.068 12.1077C22.0727 12.7493 22.5942 13.2662 23.2347 13.2662H23.2428C23.888 13.2615 24.406 12.7353 24.4013 12.0913C24.3605 6.45283 23.3117 2.34033 23.2673 2.16883C23.1682 1.785 22.8823 1.47933 22.5067 1.3545C22.3398 1.29967 18.3813 0 13.7007 0C9.02 0 5.06267 1.2985 4.89583 1.3545C4.519 1.47933 4.23083 1.7885 4.13283 2.17233C4.08617 2.35317 3 6.66517 3 12.4215C3 18.2268 4.08733 22.4945 4.134 22.6742C4.23317 23.058 4.519 23.3637 4.89467 23.4885C5.01133 23.527 7.7775 24.4358 11.4105 24.7438C11.4432 24.7462 11.477 24.7473 11.5097 24.7473C12.1105 24.7473 12.6192 24.2877 12.6705 23.6787C12.7253 23.037 12.2493 22.4712 11.6065 22.4163Z" fill="#666666"/>
</svg>
