<svg width="28" height="43" viewBox="0 0 28 43" fill="none" xmlns="http://www.w3.org/2000/svg">
<path d="M2.32227 38.9932H3.74316C3.81152 39.5742 4.41699 39.9551 5.19824 39.9551C5.98438 39.9551 6.52148 39.5791 6.52148 39.0615C6.52148 38.6025 6.18457 38.3486 5.33496 38.1582L4.41699 37.958C3.11816 37.6797 2.47852 37.0205 2.47852 35.9902C2.47852 34.6914 3.60156 33.832 5.17383 33.832C6.81445 33.832 7.84473 34.6768 7.86914 35.9512H6.4873C6.43848 35.3555 5.91602 34.9941 5.17871 34.9941C4.45117 34.9941 3.96289 35.3408 3.96289 35.8633C3.96289 36.2979 4.30469 36.542 5.11523 36.7275L5.96973 36.9082C7.38086 37.2109 7.99609 37.8164 7.99609 38.8906C7.99609 40.2578 6.8877 41.1221 5.13965 41.1221C3.44531 41.1221 2.36621 40.3164 2.32227 38.9932ZM8.81641 41V33.9541H10.2178V36.6982H10.2471C10.5254 36.0391 11.0967 35.668 11.8926 35.668C13.0547 35.668 13.7188 36.4199 13.7188 37.6309V41H12.293V37.9336C12.293 37.2598 11.9609 36.8496 11.3115 36.8496C10.6377 36.8496 10.2422 37.3232 10.2422 38.0117V41H8.81641ZM17.0342 41.1123C15.4521 41.1123 14.4414 40.0967 14.4414 38.3779C14.4414 36.6836 15.4668 35.6533 17.0342 35.6533C18.6016 35.6533 19.627 36.6787 19.627 38.3779C19.627 40.1016 18.6162 41.1123 17.0342 41.1123ZM17.0342 40.0234C17.7324 40.0234 18.1768 39.4326 18.1768 38.3828C18.1768 37.3428 17.7275 36.7422 17.0342 36.7422C16.3408 36.7422 15.8867 37.3428 15.8867 38.3828C15.8867 39.4326 16.3311 40.0234 17.0342 40.0234ZM23.4209 35.6826C24.749 35.6826 25.5645 36.6934 25.5645 38.3828C25.5645 40.0674 24.7539 41.083 23.4453 41.083C22.6836 41.083 22.0977 40.7119 21.8193 40.1211H21.79V42.709H20.3643V35.7656H21.7705V36.6787H21.7998C22.083 36.0635 22.6641 35.6826 23.4209 35.6826ZM22.9424 39.9355C23.6553 39.9355 24.1045 39.335 24.1045 38.3828C24.1045 37.4355 23.6553 36.8252 22.9424 36.8252C22.2441 36.8252 21.7852 37.4453 21.7852 38.3828C21.7852 39.3301 22.2441 39.9355 22.9424 39.9355Z" fill="#666666"/>
<path d="M22.8851 15.342L22.8941 16.56C22.8941 19.3637 20.616 21.6367 17.8174 21.6367C14.9908 21.6367 12.7127 19.3637 12.7127 16.5689L12.7038 15.2822C12.6987 14.5797 13.265 14.0057 13.9675 14.0006H13.9765C14.6752 14.0006 15.244 14.5644 15.2491 15.2644L15.258 16.56C15.258 17.9599 16.3945 19.0913 17.7906 19.0913C19.2135 19.0913 20.3487 17.9599 20.3487 16.5689L20.3398 15.3611C20.3347 14.6586 20.8998 14.0846 21.6036 14.0795H21.6125C22.3112 14.0795 22.8801 14.6421 22.8851 15.342ZM27.9987 19.0913C27.9987 22.637 27.3688 26.1165 27.3408 26.2628C27.2491 26.7681 26.8622 27.1677 26.3608 27.2771C26.2259 27.3064 22.9857 28 17.8174 28C12.6491 28 9.40885 27.3064 9.27394 27.2771C8.77251 27.1677 8.38562 26.7681 8.29399 26.2628C8.27362 26.1508 7.902 24.0993 7.72765 21.559C4.20744 21.391 1.81101 21.0016 1.70029 20.9825C1.20013 20.8998 0.797964 20.5282 0.674515 20.0356C0.647789 19.9249 0 17.293 0 13.363C0 9.43303 0.646516 6.80115 0.674515 6.69042C0.797964 6.19917 1.20013 5.82755 1.70029 5.74356C1.79192 5.72829 3.09131 5.51575 5.14667 5.33758C5.32867 2.37226 7.79001 0 10.8177 0C13.8734 0 16.3322 2.36844 16.5192 5.34012C18.5581 5.51829 19.8447 5.72829 19.9364 5.74356C20.4365 5.82628 20.8387 6.1979 20.9621 6.69042C20.9787 6.75533 21.3109 8.11199 21.503 10.3035C24.4849 10.5033 26.2628 10.8826 26.3621 10.9042C26.8635 11.0137 27.2504 11.4133 27.342 11.9185C27.3688 12.0649 28 15.5431 28 19.09L27.9987 19.0913ZM7.70856 5.16831C8.66942 5.12249 9.7092 5.09195 10.8164 5.09195C11.9351 5.09195 12.9863 5.12249 13.9561 5.16958C13.7079 3.69074 12.4136 2.54661 10.847 2.54661C9.2574 2.54661 7.96309 3.6831 7.70856 5.16831ZM2.97677 18.595C3.916 18.7171 5.57302 18.9017 7.63474 19.0073C7.64492 15.4897 8.26472 12.0649 8.29144 11.9198C8.38307 11.4146 8.76997 11.015 9.2714 10.9055C9.4063 10.8762 12.6465 10.1826 17.8148 10.1826C18.1992 10.1826 18.5682 10.1877 18.9297 10.1941C18.8444 9.3363 18.7413 8.62615 18.6535 8.13363C17.2689 7.95291 14.3417 7.63729 10.8139 7.63729C7.28603 7.63729 4.35635 7.95291 2.97423 8.13363C2.79733 9.14031 2.54152 11.0035 2.54152 13.3643C2.54152 15.7251 2.79733 17.5883 2.97423 18.595H2.97677ZM25.4521 19.0913C25.4521 16.7916 25.1581 14.4613 24.9761 13.2434C23.7391 13.0474 21.2065 12.728 17.8161 12.728C14.4257 12.728 11.8931 13.0461 10.6561 13.2434C10.4741 14.4613 10.1801 16.7916 10.1801 19.0913C10.1801 21.391 10.4741 23.7213 10.6561 24.9392C11.8931 25.1352 14.4257 25.4547 17.8161 25.4547C21.2065 25.4547 23.7391 25.1365 24.9761 24.9392C25.1581 23.7213 25.4521 21.391 25.4521 19.0913Z" fill="#666666"/>
</svg>
